<svg width="5537" height="5513" viewBox="0 0 5537 5513" fill="none" xmlns="http://www.w3.org/2000/svg">
<path d="M2563.2 4.02832H2925.79L2755.17 249.247L2563.2 4.02832Z" fill="black" stroke="white" stroke-width="8" stroke-miterlimit="10"/>
<path d="M1857.75 2387.66V2733.5L1904.23 2780.06L1950.8 2733.5V2387.66L1904.23 2341.1L1857.75 2387.66Z" fill="#0000FF"/>
<path d="M1498.7 2746.71L1452.14 2793.19L1498.7 2839.76H1844.54L1891.1 2793.19L1844.54 2746.71H1498.7Z" fill="black"/>
<path d="M1857.75 2852.89V3198.8L1904.23 3245.29L1950.8 3198.8V2852.89L1904.23 2806.33L1857.75 2852.89Z" fill="#0000FF"/>
<path d="M1485.49 3198.8V2852.89L1439.01 2806.33L1392.45 2852.89V3198.8L1439.01 3245.29L1485.49 3198.8Z" fill="#0000FF"/>
<path d="M1844.54 3211.94H1498.7L1452.14 3258.5L1498.7 3304.98H1844.54L1891.1 3258.5L1844.54 3211.94Z" fill="#0000FF"/>
<path d="M1485.49 2733.5V2387.66L1439.01 2341.1L1392.45 2387.66V2733.5L1439.01 2780.06L1485.49 2733.5Z" fill="#0000FF"/>
<path d="M1844.54 2374.45L1891.1 2327.97L1844.54 2281.41H1498.7L1452.14 2327.97L1498.7 2374.45H1844.54Z" fill="#0000FF"/>
<path d="M2523.72 2394.67V2740.59L2570.21 2787.07L2616.77 2740.59V2394.67L2570.21 2348.11L2523.72 2394.67Z" fill="black"/>
<path d="M2164.68 2753.72L2118.11 2800.2L2164.68 2846.77H2510.51L2557.08 2800.2L2510.51 2753.72H2164.68Z" fill="#0000FF"/>
<path d="M2523.72 2859.9V3205.81L2570.21 3252.38L2616.77 3205.81V2859.9L2570.21 2813.41L2523.72 2859.9Z" fill="#0000FF"/>
<path d="M2151.47 3205.81V2859.9L2104.98 2813.41L2058.42 2859.9V3205.81L2104.98 3252.38L2151.47 3205.81Z" fill="black"/>
<path d="M2510.51 3218.94H2164.68L2118.11 3265.51L2164.68 3311.99H2510.51L2557.08 3265.51L2510.51 3218.94Z" fill="#0000FF"/>
<path d="M2151.47 2740.59V2394.67L2104.98 2348.11L2058.42 2394.67V2740.59L2104.98 2787.07L2151.47 2740.59Z" fill="#0000FF"/>
<path d="M2510.51 2381.54L2557.08 2334.98L2510.51 2288.42H2164.68L2118.11 2334.98L2164.68 2381.54H2510.51Z" fill="#0000FF"/>
<path d="M3444.75 2379.61V2725.45L3491.23 2772.01L3537.79 2725.45V2379.61L3491.23 2333.05L3444.75 2379.61Z" fill="#0000FF"/>
<path d="M3085.7 2738.66L3039.13 2785.14L3085.7 2831.7H3431.53L3478.1 2785.14L3431.53 2738.66H3085.7Z" fill="black"/>
<path d="M3444.75 2844.83V3190.75L3491.23 3237.23L3537.79 3190.75V2844.83L3491.23 2798.27L3444.75 2844.83Z" fill="#0000FF"/>
<path d="M3072.49 3190.75V2844.83L3026 2798.27L2979.44 2844.83V3190.75L3026 3237.23L3072.49 3190.75Z" fill="#0000FF"/>
<path d="M3431.53 3203.88H3085.7L3039.13 3250.44L3085.7 3296.93H3431.53L3478.1 3250.44L3431.53 3203.88Z" fill="#0000FF"/>
<path d="M3072.49 2725.45V2379.61L3026 2333.05L2979.44 2379.61V2725.45L3026 2772.01L3072.49 2725.45Z" fill="#0000FF"/>
<path d="M3431.53 2366.4L3478.1 2319.92L3431.53 2273.35H3085.7L3039.13 2319.92L3085.7 2366.4H3431.53Z" fill="#0000FF"/>
<path d="M4110.72 2386.62V2732.53L4157.2 2779.02L4203.76 2732.53V2386.62L4157.2 2340.05L4110.72 2386.62Z" fill="black"/>
<path d="M3751.67 2745.67L3705.11 2792.15L3751.67 2838.71H4097.51L4144.07 2792.15L4097.51 2745.67H3751.67Z" fill="#0000FF"/>
<path d="M4110.72 2851.84V3197.76L4157.2 3244.32L4203.76 3197.76V2851.84L4157.2 2805.36L4110.72 2851.84Z" fill="#0000FF"/>
<path d="M3738.46 3197.76V2851.84L3691.98 2805.36L3645.42 2851.84V3197.76L3691.98 3244.32L3738.46 3197.76Z" fill="black"/>
<path d="M4097.51 3210.89H3751.67L3705.11 3257.45L3751.67 3303.93H4097.51L4144.07 3257.45L4097.51 3210.89Z" fill="#0000FF"/>
<path d="M3738.46 2732.53V2386.62L3691.98 2340.05L3645.42 2386.62V2732.53L3691.98 2779.02L3738.46 2732.53Z" fill="#0000FF"/>
<path d="M4097.51 2373.49L4144.07 2326.92L4097.51 2280.36H3751.67L3705.11 2326.92L3751.67 2373.49H4097.51Z" fill="#0000FF"/>
<path d="M4093.4 601.206C4167.03 601.206 4226.72 541.515 4226.72 467.882C4226.72 394.25 4167.03 334.559 4093.4 334.559C4019.77 334.559 3960.08 394.25 3960.08 467.882C3960.08 541.515 4019.77 601.206 4093.4 601.206Z" fill="black" stroke="white" stroke-width="5" stroke-miterlimit="10"/>
<path d="M5039.8 1582.24C5113.43 1582.24 5173.12 1522.55 5173.12 1448.92C5173.12 1375.29 5113.43 1315.6 5039.8 1315.6C4966.16 1315.6 4906.47 1375.29 4906.47 1448.92C4906.47 1522.55 4966.16 1582.24 5039.8 1582.24Z" fill="black" stroke="white" stroke-width="5" stroke-miterlimit="10"/>
<path d="M5399.65 2877.86C5473.28 2877.86 5532.97 2818.17 5532.97 2744.54C5532.97 2670.9 5473.28 2611.21 5399.65 2611.21C5326.02 2611.21 5266.32 2670.9 5266.32 2744.54C5266.32 2818.17 5326.02 2877.86 5399.65 2877.86Z" fill="black" stroke="white" stroke-width="5" stroke-miterlimit="10"/>
<path d="M3035.11 20.0586L3011.1 219.923" stroke="#646262" stroke-width="4" stroke-miterlimit="10"/>
<path d="M3323.02 52.04L3275.01 243.93" stroke="#646262" stroke-width="4" stroke-miterlimit="10"/>
<path d="M3594.91 147.985L3530.94 323.924" stroke="#646262" stroke-width="4" stroke-miterlimit="10"/>
<path d="M4370.68 515.895L4274.65 667.827" stroke="#646262" stroke-width="4" stroke-miterlimit="10"/>
<path d="M4602.61 707.784L4474.6 843.766" stroke="#646262" stroke-width="4" stroke-miterlimit="10"/>
<path d="M4802.55 899.754L4666.57 1027.68" stroke="#646262" stroke-width="4" stroke-miterlimit="10"/>
<path d="M4986.47 1131.68L4818.5 1227.63" stroke="#646262" stroke-width="4" stroke-miterlimit="10"/>
<path d="M5282.36 1619.54L5090.39 1699.45" stroke="#646262" stroke-width="4" stroke-miterlimit="10"/>
<path d="M5378.3 1891.43L5186.41 1947.41" stroke="#646262" stroke-width="4" stroke-miterlimit="10"/>
<path d="M5458.29 2171.37L5258.35 2211.32" stroke="#646262" stroke-width="4" stroke-miterlimit="10"/>
<path d="M5498.33 2451.22L5306.36 2459.28" stroke="#646262" stroke-width="4" stroke-miterlimit="10"/>
<path d="M2755.17 483.913L2763.14 707.784" stroke="#F7F5F5" stroke-width="5.24" stroke-miterlimit="10"/>
<path d="M2987.09 503.892L2985.08 661.786" stroke="#918F8F" stroke-width="5.24" stroke-miterlimit="10"/>
<path d="M3233.04 557.865L3197.03 699.809" stroke="#918F8F" stroke-width="5.24" stroke-miterlimit="10"/>
<path d="M3464.96 607.812L3414.94 745.808" stroke="#918F8F" stroke-width="5.24" stroke-miterlimit="10"/>
<path d="M3680.86 695.781L3622.86 821.774" stroke="#918F8F" stroke-width="5.24" stroke-miterlimit="10"/>
<path d="M3904.81 791.807L3790.82 981.682" stroke="#F7F5F5" stroke-width="5.24" stroke-miterlimit="10"/>
<path d="M4090.74 929.723L4012.76 1045.73" stroke="#918F8F" stroke-width="5.24" stroke-miterlimit="10"/>
<path d="M4276.67 1079.72L4186.69 1187.67" stroke="#918F8F" stroke-width="5.24" stroke-miterlimit="10"/>
<path d="M4446.65 1247.6L4338.7 1347.58" stroke="#918F8F" stroke-width="5.24" stroke-miterlimit="10"/>
<path d="M4596.56 1435.55L4476.61 1519.57" stroke="#918F8F" stroke-width="5.24" stroke-miterlimit="10"/>
<path d="M4730.53 1631.54L4546.62 1743.52" stroke="#F7F5F5" stroke-width="5.24" stroke-miterlimit="10"/>
<path d="M4836.47 1847.44L4694.52 1907.46" stroke="#918F8F" stroke-width="5.24" stroke-miterlimit="10"/>
<path d="M4916.46 2063.42L4772.5 2111.35" stroke="#918F8F" stroke-width="5.24" stroke-miterlimit="10"/>
<path d="M4980.42 2297.28L4834.53 2331.27" stroke="#918F8F" stroke-width="5.24" stroke-miterlimit="10"/>
<path d="M5012.49 2535.25L4864.5 2541.21" stroke="#918F8F" stroke-width="5.24" stroke-miterlimit="10"/>
<path d="M5040.44 2771.12L4804.48 2769.19" stroke="#F7F5F5" stroke-width="5.24" stroke-miterlimit="10"/>
<path d="M5018.45 3001.12L4866.51 2991.13" stroke="#918F8F" stroke-width="5.24" stroke-miterlimit="10"/>
<path d="M4980.42 3239L4824.54 3201.06" stroke="#918F8F" stroke-width="5.24" stroke-miterlimit="10"/>
<path d="M4916.46 3474.96L4768.56 3416.96" stroke="#918F8F" stroke-width="5.24" stroke-miterlimit="10"/>
<path d="M4826.48 3692.87L4692.59 3616.9" stroke="#918F8F" stroke-width="5.24" stroke-miterlimit="10"/>
<path d="M4734.56 3910.78L4536.63 3792.84" stroke="#F7F5F5" stroke-width="5.24" stroke-miterlimit="10"/>
<path d="M4592.62 4104.76L4468.64 4010.75" stroke="#918F8F" stroke-width="5.24" stroke-miterlimit="10"/>
<path d="M4442.62 4288.68L4330.64 4178.71" stroke="#918F8F" stroke-width="5.24" stroke-miterlimit="10"/>
<path d="M4274.65 4454.63L4174.68 4338.7" stroke="#918F8F" stroke-width="5.24" stroke-miterlimit="10"/>
<path d="M4088.73 4598.58L3998.74 4482.66" stroke="#918F8F" stroke-width="5.24" stroke-miterlimit="10"/>
<path d="M3892.81 4742.54L3776.8 4544.61" stroke="#F7F5F5" stroke-width="5.24" stroke-miterlimit="10"/>
<path d="M3678.85 4838.49L3614.88 4702.58" stroke="#918F8F" stroke-width="5.24" stroke-miterlimit="10"/>
<path d="M3450.95 4926.46L3410.99 4776.54" stroke="#918F8F" stroke-width="5.24" stroke-miterlimit="10"/>
<path d="M3229.01 4986.47L3199.04 4844.53" stroke="#918F8F" stroke-width="5.24" stroke-miterlimit="10"/>
<path d="M2989.11 5026.43L2983.07 4872.48" stroke="#918F8F" stroke-width="5.24" stroke-miterlimit="10"/>
<path d="M2755.17 5044.47L2759.2 4864.51" stroke="#F7F5F5" stroke-width="5.24" stroke-miterlimit="10"/>
<path d="M2523.24 5024.41L2537.26 4874.5" stroke="#918F8F" stroke-width="5.24" stroke-miterlimit="10"/>
<path d="M2287.29 4978.5L2321.28 4852.5" stroke="#918F8F" stroke-width="5.24" stroke-miterlimit="10"/>
<path d="M2059.39 4916.47L2103.37 4790.55" stroke="#918F8F" stroke-width="5.24" stroke-miterlimit="10"/>
<path d="M1833.42 4840.5L1897.47 4708.55" stroke="#918F8F" stroke-width="5.24" stroke-miterlimit="10"/>
<path d="M1621.55 4742.54L1733.45 4548.64" stroke="#F7F5F5" stroke-width="5.24" stroke-miterlimit="10"/>
<path d="M1429.58 4600.6L1519.57 4478.63" stroke="#918F8F" stroke-width="5.24" stroke-miterlimit="10"/>
<path d="M1239.63 4446.65L1337.59 4330.65" stroke="#918F8F" stroke-width="5.24" stroke-miterlimit="10"/>
<path d="M1069.73 4288.68L1187.67 4190.72" stroke="#918F8F" stroke-width="5.24" stroke-miterlimit="10"/>
<path d="M927.707 4102.75L1047.74 4014.78" stroke="#918F8F" stroke-width="5.24" stroke-miterlimit="10"/>
<path d="M789.791 3910.78L987.722 3794.86" stroke="#F7F5F5" stroke-width="5.24" stroke-miterlimit="10"/>
<path d="M689.818 3688.84L829.748 3630.92" stroke="#918F8F" stroke-width="5.24" stroke-miterlimit="10"/>
<path d="M601.85 3466.9L745.807 3422.92" stroke="#918F8F" stroke-width="5.24" stroke-miterlimit="10"/>
<path d="M537.886 3236.99L687.804 3211.05" stroke="#918F8F" stroke-width="5.24" stroke-miterlimit="10"/>
<path d="M509.852 3003.05L663.798 2987.1" stroke="#918F8F" stroke-width="5.24" stroke-miterlimit="10"/>
<path d="M485.846 2767.17L715.839 2771.12" stroke="#F7F5F5" stroke-width="5.24" stroke-miterlimit="10"/>
<path d="M507.838 2537.26L653.809 2547.25" stroke="#918F8F" stroke-width="5.24" stroke-miterlimit="10"/>
<path d="M547.875 2297.28L693.846 2333.29" stroke="#918F8F" stroke-width="5.24" stroke-miterlimit="10"/>
<path d="M605.877 2063.42L747.82 2119.33" stroke="#918F8F" stroke-width="5.24" stroke-miterlimit="10"/>
<path d="M691.833 1847.44L829.748 1911.4" stroke="#918F8F" stroke-width="5.24" stroke-miterlimit="10"/>
<path d="M787.777 1627.52L979.747 1745.45" stroke="#F7F5F5" stroke-width="5.24" stroke-miterlimit="10"/>
<path d="M923.76 1435.55L1053.7 1529.56" stroke="#918F8F" stroke-width="5.24" stroke-miterlimit="10"/>
<path d="M1073.68 1249.62L1187.67 1355.63" stroke="#918F8F" stroke-width="5.24" stroke-miterlimit="10"/>
<path d="M1239.63 1073.68L1343.63 1193.63" stroke="#918F8F" stroke-width="5.24" stroke-miterlimit="10"/>
<path d="M1429.58 937.697L1519.57 1055.72" stroke="#918F8F" stroke-width="5.24" stroke-miterlimit="10"/>
<path d="M1621.55 795.754L1739.49 989.738" stroke="#F7F5F5" stroke-width="5.24" stroke-miterlimit="10"/>
<path d="M1837.45 697.795L1897.46 827.735" stroke="#918F8F" stroke-width="5.24" stroke-miterlimit="10"/>
<path d="M2053.35 613.854L2111.35 757.811" stroke="#918F8F" stroke-width="5.24" stroke-miterlimit="10"/>
<path d="M2285.27 551.823L2319.27 697.795" stroke="#918F8F" stroke-width="5.24" stroke-miterlimit="10"/>
<path d="M2529.2 507.839L2543.22 663.8" stroke="#918F8F" stroke-width="5.24" stroke-miterlimit="10"/>
<g opacity="0.69">
<path d="M2797.78 2731.41L3406.64 1505.71L3712.44 1176.96L3584.11 1627.03L2797.78 2731.41Z" fill="white" stroke="#0000FF" stroke-width="0.87" stroke-miterlimit="10"/>
</g>
<path d="M2802.05 2998.3C2832.8 2998.3 2857.72 2973.37 2857.72 2942.63C2857.72 2911.89 2832.8 2886.96 2802.05 2886.96C2771.31 2886.96 2746.39 2911.89 2746.39 2942.63C2746.39 2973.37 2771.31 2998.3 2802.05 2998.3Z" fill="#0000FF"/>
<path d="M2798.51 2709.82C2829.25 2709.82 2854.17 2684.89 2854.17 2654.15C2854.17 2623.41 2829.25 2598.49 2798.51 2598.49C2767.76 2598.49 2742.84 2623.41 2742.84 2654.15C2742.84 2684.89 2767.76 2709.82 2798.51 2709.82Z" fill="#0000FF"/>
</svg>
