<svg width="1224" height="1439" viewBox="0 0 1224 1439" fill="none" xmlns="http://www.w3.org/2000/svg">
<path d="M0 1101.8L0.860352 1360.11C0.860352 1360.11 107.885 1375.99 81.9397 1242.24C86.97 1224.7 84.4548 1189.56 115.364 1172.02C130.389 1166.2 156.334 1164.48 156.334 1164.48L172.219 1199.62C172.219 1199.62 379.583 1177.05 435.578 1135.22C491.572 1093.4 516.657 1087.57 519.172 1028.21C521.688 968.841 570.997 957.987 570.997 957.987C570.997 957.987 625.337 968.047 648.767 1009.81C652.142 1034.03 671.337 1193.73 669.682 1212.92C668.027 1232.11 677.227 1309.88 677.227 1309.88H698.143L680.603 1423.58C680.603 1423.58 675.573 1445.29 733.288 1436.95C791.003 1428.61 902.198 1409.35 902.198 1409.35C902.198 1409.35 964.083 1386.78 910.537 1370.04C856.992 1353.29 818.603 1331.59 818.603 1331.59C818.603 1331.59 781.803 1303.99 781.803 1294.79C781.803 1285.59 808.543 1280.56 808.543 1280.56C808.543 1280.56 800.203 1146.81 791.797 1144.29C783.392 1141.78 810.198 992.998 810.198 992.998C810.198 992.998 811.852 895.181 754.997 842.5C698.143 789.818 601.973 692.862 590.324 693.722C578.675 694.582 605.348 663.609 605.348 663.609L607.003 645.21L631.227 657.719L657.173 628.466L662.203 575.785L688.148 531.509L763.403 490.542C763.403 490.542 869.567 528.994 972.422 438.722C997.507 413.639 1058.53 377.702 1058.53 377.702L1116.25 392.725C1116.25 392.725 1124.59 401.924 1137.96 376.841C1151.33 351.758 1151.33 316.682 1151.33 316.682L1200.64 289.084L1221.55 289.944L1224.07 264.001L1183.96 262.346L1146.36 222.24L1103.74 224.755L1102.88 240.638L949.853 232.299V219.791L966.598 220.651V195.568H943.168L944.822 164.661L887.107 165.522L886.247 189.744C886.247 189.744 859.507 206.488 866.986 213.173L824.362 210.658L810.131 209.797L809.271 102.781L802.586 97.7509C802.586 97.7509 799.21 9.99329 693.046 16.6777C686.361 7.47837 680.537 -0.0664062 667.961 0.793963C655.386 1.65433 650.422 18.3323 650.422 18.3323L632.882 17.4719L632.022 -0.0664062L603.627 2.44852V15.8173C603.627 15.8173 514.142 54.2692 545.912 142.027C552.597 154.535 550.942 177.17 558.421 181.339C565.901 185.509 519.967 189.678 519.967 189.678L468.142 176.309L444.712 167.11L361.117 293.319L338.548 279.951C338.548 279.951 274.147 351.03 264.153 520.721C286.723 516.552 310.947 517.346 310.947 517.346C310.947 517.346 273.353 529.06 309.293 595.905C303.468 620.127 214.844 673.669 339.408 813.247C339.408 813.247 323.523 858.383 368.663 936.147C413.802 1013.91 227.353 1023.11 227.353 1023.11L-0.0662842 1101.67L0 1101.8Z" fill="#C60B37"/>
</svg>
