<svg width="5049" height="5042" viewBox="0 0 5049 5042" fill="none" xmlns="http://www.w3.org/2000/svg">
<path d="M2078.2 1.02832H2440.79L2270.17 246.247L2078.2 1.02832Z" fill="black" stroke="white" stroke-miterlimit="10"/>
<path d="M1372.75 2384.66V2730.5L1419.23 2777.06L1465.8 2730.5V2384.66L1419.23 2338.1L1372.75 2384.66Z" fill="#D11919"/>
<path d="M1013.7 2743.71L967.141 2790.19L1013.7 2836.76H1359.54L1406.1 2790.19L1359.54 2743.71H1013.7Z" fill="black"/>
<path d="M1372.75 2849.89V3195.8L1419.23 3242.29L1465.8 3195.8V2849.89L1419.23 2803.33L1372.75 2849.89Z" fill="#D11919"/>
<path d="M1000.49 3195.8V2849.89L954.01 2803.33L907.447 2849.89V3195.8L954.01 3242.29L1000.49 3195.8Z" fill="#D11919"/>
<path d="M1359.54 3208.94H1013.7L967.141 3255.5L1013.7 3301.98H1359.54L1406.1 3255.5L1359.54 3208.94Z" fill="#D11919"/>
<path d="M1000.49 2730.5V2384.66L954.01 2338.1L907.447 2384.66V2730.5L954.01 2777.06L1000.49 2730.5Z" fill="#D11919"/>
<path d="M1359.54 2371.45L1406.1 2324.97L1359.54 2278.41H1013.7L967.141 2324.97L1013.7 2371.45H1359.54Z" fill="#D11919"/>
<path d="M2038.72 2391.67V2737.59L2085.21 2784.07L2131.77 2737.59V2391.67L2085.21 2345.11L2038.72 2391.67Z" fill="black"/>
<path d="M1679.68 2750.72L1633.11 2797.2L1679.68 2843.77H2025.51L2072.08 2797.2L2025.51 2750.72H1679.68Z" fill="#D11919"/>
<path d="M2038.72 2856.9V3202.81L2085.21 3249.38L2131.77 3202.81V2856.9L2085.21 2810.41L2038.72 2856.9Z" fill="#D11919"/>
<path d="M1666.47 3202.81V2856.9L1619.98 2810.41L1573.42 2856.9V3202.81L1619.98 3249.38L1666.47 3202.81Z" fill="black"/>
<path d="M2025.51 3215.94H1679.68L1633.11 3262.51L1679.68 3308.99H2025.51L2072.08 3262.51L2025.51 3215.94Z" fill="#D11919"/>
<path d="M1666.47 2737.59V2391.67L1619.98 2345.11L1573.42 2391.67V2737.59L1619.98 2784.07L1666.47 2737.59Z" fill="#D11919"/>
<path d="M2025.51 2378.54L2072.08 2331.98L2025.51 2285.42H1679.68L1633.11 2331.98L1679.68 2378.54H2025.51Z" fill="#D11919"/>
<path d="M2959.75 2376.61V2722.45L3006.23 2769.01L3052.79 2722.45V2376.61L3006.23 2330.05L2959.75 2376.61Z" fill="#D11919"/>
<path d="M2600.7 2735.66L2554.13 2782.14L2600.7 2828.7H2946.53L2993.1 2782.14L2946.53 2735.66H2600.7Z" fill="black"/>
<path d="M2959.75 2841.83V3187.75L3006.23 3234.23L3052.79 3187.75V2841.83L3006.23 2795.27L2959.75 2841.83Z" fill="#D11919"/>
<path d="M2587.49 3187.75V2841.83L2541 2795.27L2494.44 2841.83V3187.75L2541 3234.23L2587.49 3187.75Z" fill="#D11919"/>
<path d="M2946.53 3200.88H2600.7L2554.13 3247.44L2600.7 3293.93H2946.53L2993.1 3247.44L2946.53 3200.88Z" fill="#D11919"/>
<path d="M2587.49 2722.45V2376.61L2541 2330.05L2494.44 2376.61V2722.45L2541 2769.01L2587.49 2722.45Z" fill="#D11919"/>
<path d="M2946.53 2363.4L2993.1 2316.92L2946.53 2270.35H2600.7L2554.13 2316.92L2600.7 2363.4H2946.53Z" fill="#D11919"/>
<path d="M3625.72 2383.62V2729.53L3672.2 2776.02L3718.76 2729.53V2383.62L3672.2 2337.05L3625.72 2383.62Z" fill="black"/>
<path d="M3266.67 2742.67L3220.11 2789.15L3266.67 2835.71H3612.51L3659.07 2789.15L3612.51 2742.67H3266.67Z" fill="#D11919"/>
<path d="M3625.72 2848.84V3194.76L3672.2 3241.32L3718.76 3194.76V2848.84L3672.2 2802.36L3625.72 2848.84Z" fill="#D11919"/>
<path d="M3253.46 3194.76V2848.84L3206.98 2802.36L3160.42 2848.84V3194.76L3206.98 3241.32L3253.46 3194.76Z" fill="black"/>
<path d="M3612.51 3207.89H3266.67L3220.11 3254.45L3266.67 3300.93H3612.51L3659.07 3254.45L3612.51 3207.89Z" fill="#D11919"/>
<path d="M3253.46 2729.53V2383.62L3206.98 2337.05L3160.42 2383.62V2729.53L3206.98 2776.02L3253.46 2729.53Z" fill="#D11919"/>
<path d="M3612.51 2370.49L3659.07 2323.92L3612.51 2277.36H3266.67L3220.11 2323.92L3266.67 2370.49H3612.51Z" fill="#D11919"/>
<path d="M3608.4 598.206C3682.03 598.206 3741.72 538.515 3741.72 464.882C3741.72 391.25 3682.03 331.559 3608.4 331.559C3534.77 331.559 3475.08 391.25 3475.08 464.882C3475.08 538.515 3534.77 598.206 3608.4 598.206Z" fill="black" stroke="white" stroke-miterlimit="10"/>
<path d="M4554.8 1579.24C4628.43 1579.24 4688.12 1519.55 4688.12 1445.92C4688.12 1372.29 4628.43 1312.6 4554.8 1312.6C4481.16 1312.6 4421.47 1372.29 4421.47 1445.92C4421.47 1519.55 4481.16 1579.24 4554.8 1579.24Z" fill="black" stroke="white" stroke-miterlimit="10"/>
<path d="M4914.65 2874.86C4988.28 2874.86 5047.97 2815.17 5047.97 2741.54C5047.97 2667.9 4988.28 2608.21 4914.65 2608.21C4841.02 2608.21 4781.32 2667.9 4781.32 2741.54C4781.32 2815.17 4841.02 2874.86 4914.65 2874.86Z" fill="black" stroke="white" stroke-miterlimit="10"/>
<path d="M2550.11 17.0586L2526.1 216.923" stroke="#333333" stroke-width="5.24" stroke-miterlimit="10"/>
<path d="M2838.02 49.04L2790.01 240.93" stroke="#333333" stroke-width="5.24" stroke-miterlimit="10"/>
<path d="M3109.91 144.985L3045.94 320.924" stroke="#333333" stroke-width="5.24" stroke-miterlimit="10"/>
<path d="M3885.68 512.895L3789.65 664.827" stroke="#333333" stroke-width="5.24" stroke-miterlimit="10"/>
<path d="M4117.61 704.784L3989.6 840.766" stroke="#333333" stroke-width="5.24" stroke-miterlimit="10"/>
<path d="M4317.55 896.754L4181.57 1024.68" stroke="#333333" stroke-width="5.24" stroke-miterlimit="10"/>
<path d="M4501.47 1128.68L4333.5 1224.63" stroke="#333333" stroke-width="5.24" stroke-miterlimit="10"/>
<path d="M4797.36 1616.54L4605.39 1696.45" stroke="#333333" stroke-width="5.24" stroke-miterlimit="10"/>
<path d="M4893.3 1888.43L4701.41 1944.41" stroke="#333333" stroke-width="5.24" stroke-miterlimit="10"/>
<path d="M4973.29 2168.37L4773.35 2208.32" stroke="#333333" stroke-width="5.24" stroke-miterlimit="10"/>
<path d="M5013.33 2448.22L4821.36 2456.28" stroke="#333333" stroke-width="5.24" stroke-miterlimit="10"/>
<path d="M2270.17 480.913L2278.14 704.784" stroke="#CCCCCC" stroke-width="5.24" stroke-miterlimit="10"/>
<path d="M2502.09 500.892L2500.08 658.786" stroke="#666666" stroke-width="5.24" stroke-miterlimit="10"/>
<path d="M2748.04 554.865L2712.03 696.809" stroke="#666666" stroke-width="5.24" stroke-miterlimit="10"/>
<path d="M2979.96 604.812L2929.94 742.808" stroke="#666666" stroke-width="5.24" stroke-miterlimit="10"/>
<path d="M3195.86 692.781L3137.86 818.774" stroke="#666666" stroke-width="5.24" stroke-miterlimit="10"/>
<path d="M3419.81 788.807L3305.82 978.682" stroke="#CCCCCC" stroke-width="5.24" stroke-miterlimit="10"/>
<path d="M3605.74 926.723L3527.76 1042.73" stroke="#666666" stroke-width="5.24" stroke-miterlimit="10"/>
<path d="M3791.67 1076.72L3701.69 1184.67" stroke="#666666" stroke-width="5.24" stroke-miterlimit="10"/>
<path d="M3961.65 1244.6L3853.7 1344.58" stroke="#666666" stroke-width="5.24" stroke-miterlimit="10"/>
<path d="M4111.56 1432.55L3991.61 1516.57" stroke="#666666" stroke-width="5.24" stroke-miterlimit="10"/>
<path d="M4245.53 1628.54L4061.62 1740.52" stroke="#CCCCCC" stroke-width="5.24" stroke-miterlimit="10"/>
<path d="M4351.47 1844.44L4209.52 1904.46" stroke="#666666" stroke-width="5.24" stroke-miterlimit="10"/>
<path d="M4431.46 2060.42L4287.5 2108.35" stroke="#666666" stroke-width="5.24" stroke-miterlimit="10"/>
<path d="M4495.42 2294.28L4349.53 2328.27" stroke="#666666" stroke-width="5.24" stroke-miterlimit="10"/>
<path d="M4527.49 2532.25L4379.5 2538.21" stroke="#666666" stroke-width="5.24" stroke-miterlimit="10"/>
<path d="M4555.44 2768.12L4319.48 2766.19" stroke="#CCCCCC" stroke-width="5.24" stroke-miterlimit="10"/>
<path d="M4533.45 2998.12L4381.51 2988.13" stroke="#666666" stroke-width="5.24" stroke-miterlimit="10"/>
<path d="M4495.42 3236L4339.54 3198.06" stroke="#666666" stroke-width="5.24" stroke-miterlimit="10"/>
<path d="M4431.46 3471.96L4283.56 3413.96" stroke="#666666" stroke-width="5.24" stroke-miterlimit="10"/>
<path d="M4341.48 3689.87L4207.59 3613.9" stroke="#666666" stroke-width="5.24" stroke-miterlimit="10"/>
<path d="M4249.56 3907.78L4051.63 3789.84" stroke="#CCCCCC" stroke-width="5.24" stroke-miterlimit="10"/>
<path d="M4107.62 4101.76L3983.64 4007.75" stroke="#666666" stroke-width="5.24" stroke-miterlimit="10"/>
<path d="M3957.62 4285.68L3845.64 4175.71" stroke="#666666" stroke-width="5.24" stroke-miterlimit="10"/>
<path d="M3789.65 4451.63L3689.68 4335.7" stroke="#666666" stroke-width="5.24" stroke-miterlimit="10"/>
<path d="M3603.73 4595.58L3513.74 4479.66" stroke="#666666" stroke-width="5.24" stroke-miterlimit="10"/>
<path d="M3407.81 4739.54L3291.8 4541.61" stroke="#CCCCCC" stroke-width="5.24" stroke-miterlimit="10"/>
<path d="M3193.85 4835.49L3129.88 4699.58" stroke="#666666" stroke-width="5.24" stroke-miterlimit="10"/>
<path d="M2965.95 4923.46L2925.99 4773.54" stroke="#666666" stroke-width="5.24" stroke-miterlimit="10"/>
<path d="M2744.01 4983.47L2714.04 4841.53" stroke="#666666" stroke-width="5.24" stroke-miterlimit="10"/>
<path d="M2504.11 5023.43L2498.07 4869.48" stroke="#666666" stroke-width="5.24" stroke-miterlimit="10"/>
<path d="M2270.17 5041.47L2274.2 4861.51" stroke="#CCCCCC" stroke-width="5.24" stroke-miterlimit="10"/>
<path d="M2038.24 5021.41L2052.26 4871.5" stroke="#666666" stroke-width="5.24" stroke-miterlimit="10"/>
<path d="M1802.29 4975.5L1836.28 4849.5" stroke="#666666" stroke-width="5.24" stroke-miterlimit="10"/>
<path d="M1574.39 4913.47L1618.37 4787.55" stroke="#666666" stroke-width="5.24" stroke-miterlimit="10"/>
<path d="M1348.42 4837.5L1412.47 4705.55" stroke="#666666" stroke-width="5.24" stroke-miterlimit="10"/>
<path d="M1136.55 4739.54L1248.45 4545.64" stroke="#CCCCCC" stroke-width="5.24" stroke-miterlimit="10"/>
<path d="M944.584 4597.6L1034.57 4475.63" stroke="#666666" stroke-width="5.24" stroke-miterlimit="10"/>
<path d="M754.628 4443.65L852.586 4327.65" stroke="#666666" stroke-width="5.24" stroke-miterlimit="10"/>
<path d="M584.73 4285.68L702.668 4187.72" stroke="#666666" stroke-width="5.24" stroke-miterlimit="10"/>
<path d="M442.707 4099.75L562.739 4011.78" stroke="#666666" stroke-width="5.24" stroke-miterlimit="10"/>
<path d="M304.791 3907.78L502.722 3791.86" stroke="#CCCCCC" stroke-width="5.24" stroke-miterlimit="10"/>
<path d="M204.818 3685.84L344.748 3627.92" stroke="#666666" stroke-width="5.24" stroke-miterlimit="10"/>
<path d="M116.85 3463.9L260.807 3419.92" stroke="#666666" stroke-width="5.24" stroke-miterlimit="10"/>
<path d="M52.8857 3233.99L202.804 3208.05" stroke="#666666" stroke-width="5.24" stroke-miterlimit="10"/>
<path d="M24.8516 3000.05L178.798 2984.1" stroke="#666666" stroke-width="5.24" stroke-miterlimit="10"/>
<path d="M0.845703 2764.17L230.839 2768.12" stroke="#CCCCCC" stroke-width="5.24" stroke-miterlimit="10"/>
<path d="M22.8379 2534.26L168.809 2544.25" stroke="#666666" stroke-width="5.24" stroke-miterlimit="10"/>
<path d="M62.875 2294.28L208.846 2330.29" stroke="#666666" stroke-width="5.24" stroke-miterlimit="10"/>
<path d="M120.877 2060.42L262.82 2116.33" stroke="#666666" stroke-width="5.24" stroke-miterlimit="10"/>
<path d="M206.833 1844.44L344.748 1908.4" stroke="#666666" stroke-width="5.24" stroke-miterlimit="10"/>
<path d="M302.777 1624.52L494.747 1742.45" stroke="#CCCCCC" stroke-width="5.24" stroke-miterlimit="10"/>
<path d="M438.76 1432.55L568.7 1526.56" stroke="#666666" stroke-width="5.24" stroke-miterlimit="10"/>
<path d="M588.678 1246.62L702.667 1352.63" stroke="#666666" stroke-width="5.24" stroke-miterlimit="10"/>
<path d="M754.628 1070.68L858.628 1190.63" stroke="#666666" stroke-width="5.24" stroke-miterlimit="10"/>
<path d="M944.584 934.697L1034.57 1052.72" stroke="#666666" stroke-width="5.24" stroke-miterlimit="10"/>
<path d="M1136.55 792.754L1254.49 986.738" stroke="#CCCCCC" stroke-width="5.24" stroke-miterlimit="10"/>
<path d="M1352.45 694.795L1412.46 824.735" stroke="#666666" stroke-width="5.24" stroke-miterlimit="10"/>
<path d="M1568.35 610.854L1626.35 754.811" stroke="#666666" stroke-width="5.24" stroke-miterlimit="10"/>
<path d="M1800.27 548.823L1834.27 694.795" stroke="#666666" stroke-width="5.24" stroke-miterlimit="10"/>
<path d="M2044.2 504.839L2058.22 660.8" stroke="#666666" stroke-width="5.24" stroke-miterlimit="10"/>
<g opacity="0.69">
<path d="M2312.78 2728.41L2921.64 1502.71L3227.44 1173.96L3099.11 1624.03L2312.78 2728.41Z" fill="white" stroke="#0000FF" stroke-width="0.87" stroke-miterlimit="10"/>
</g>
<path d="M2317.05 2995.3C2347.8 2995.3 2372.72 2970.37 2372.72 2939.63C2372.72 2908.89 2347.8 2883.96 2317.05 2883.96C2286.31 2883.96 2261.39 2908.89 2261.39 2939.63C2261.39 2970.37 2286.31 2995.3 2317.05 2995.3Z" fill="#D11919"/>
<path d="M2313.51 2706.82C2344.25 2706.82 2369.17 2681.89 2369.17 2651.15C2369.17 2620.41 2344.25 2595.49 2313.51 2595.49C2282.76 2595.49 2257.84 2620.41 2257.84 2651.15C2257.84 2681.89 2282.76 2706.82 2313.51 2706.82Z" fill="#D11919"/>
</svg>
