<svg width="922" height="1084" viewBox="0 0 922 1084" fill="none" xmlns="http://www.w3.org/2000/svg">
<path d="M0 829.62L0.63 1024.12C0.63 1024.12 81.2 1036.08 61.69 935.37C65.47 922.15 63.58 895.71 86.87 882.5C98.2 878.09 117.71 876.83 117.71 876.83L129.67 903.27C129.67 903.27 285.77 886.27 327.95 854.8C370.12 823.33 389.01 818.92 390.9 774.23C392.79 729.54 429.93 721.36 429.93 721.36C429.93 721.36 470.84 728.91 488.47 760.39C490.99 778.64 505.47 898.87 504.21 913.35C502.95 927.83 509.88 986.37 509.88 986.37H525.62L512.4 1071.98C512.4 1071.98 508.62 1088.35 552.06 1082.05C595.49 1075.76 679.21 1061.28 679.21 1061.28C679.21 1061.28 725.79 1044.28 685.5 1031.7C645.22 1019.11 616.26 1002.75 616.26 1002.75C616.26 1002.75 588.56 981.98 588.56 975.05C588.56 968.12 608.7 964.35 608.7 964.35C608.7 964.35 602.41 863.64 596.11 861.75C589.82 859.86 609.96 747.82 609.96 747.82C609.96 747.82 611.22 674.17 568.42 634.52C525.62 594.86 453.23 521.85 444.42 522.48C435.61 523.11 455.75 499.82 455.75 499.82L457.01 485.97L475.26 495.41L494.77 473.38L498.55 433.72L518.06 400.36L574.71 369.52C574.71 369.52 654.65 398.47 732.07 330.49C750.95 311.61 796.9 284.54 796.9 284.54L840.33 295.87C840.33 295.87 846.62 302.79 856.7 283.91C866.77 265.03 866.77 238.59 866.77 238.59L903.91 217.82L919.65 218.45L921.54 198.94L891.33 197.68L863 167.47L830.9 169.36L830.27 181.32L715.08 175.03V165.59L727.67 166.22V147.34H710.05L711.31 124.05L667.88 124.68L667.25 142.93C667.25 142.93 647.11 155.52 652.77 160.55C644.99 160.09 617.22 158.46 609.97 158.03L609.34 77.46L604.3 73.68C604.3 73.68 601.78 7.59 521.84 12.62C516.78 5.67 512.37 0 502.93 0.63C493.49 1.26 489.71 13.85 489.71 13.85L476.49 13.22L475.86 0L454.46 1.89V11.96C454.46 11.96 387.11 40.91 411.03 107.01C416.07 116.45 414.81 133.45 420.47 136.59C426.14 139.74 391.52 142.88 391.52 142.88L352.49 132.81L334.87 125.89L271.92 220.94L254.92 210.87C254.92 210.87 206.45 264.37 198.9 392.15C215.9 389 234.15 389.63 234.15 389.63C234.15 389.63 205.82 398.44 232.89 448.8C228.48 467.05 161.76 507.34 255.55 612.46C255.55 612.46 243.59 646.45 277.58 704.99C311.57 763.53 171.2 770.45 171.2 770.45L0 829.62Z" fill="#0B2168"/>
</svg>
