<svg width="227" height="124" viewBox="0 0 227 124" fill="none" xmlns="http://www.w3.org/2000/svg">
<path fill-rule="evenodd" clip-rule="evenodd" d="M3.00001 61.8889C26.7694 26.3793 67.2483 3 113.188 3C159.127 3 199.606 26.3793 223.376 61.8889C199.606 97.3985 159.127 120.778 113.188 120.778C67.2483 120.778 26.7694 97.3985 3.00001 61.8889Z" fill="#E4E6DA"/>
<path d="M3.00001 61.8889L0.50698 60.2201C-0.168985 61.23 -0.168985 62.5479 0.50698 63.5577L3.00001 61.8889ZM223.376 61.8889L225.869 63.5577C226.545 62.5479 226.545 61.23 225.869 60.2201L223.376 61.8889ZM5.49303 63.5577C28.7293 28.8445 68.2913 6 113.188 6V0C66.2053 0 24.8095 23.9141 0.50698 60.2201L5.49303 63.5577ZM113.188 6C158.084 6 197.646 28.8445 220.883 63.5577L225.869 60.2201C201.566 23.9141 160.17 0 113.188 0V6ZM220.883 60.2201C197.646 94.9333 158.084 117.778 113.188 117.778V123.778C160.17 123.778 201.566 99.8637 225.869 63.5577L220.883 60.2201ZM113.188 117.778C68.2913 117.778 28.7293 94.9333 5.49303 60.2201L0.50698 63.5577C24.8095 99.8637 66.2053 123.778 113.188 123.778V117.778Z" fill="#A6A89C"/>
<circle cx="113.688" cy="63.7778" r="39" fill="#006BB3"/>
<circle cx="113.188" cy="64.2778" r="25.5" fill="black"/>
</svg>
