<svg width="229" height="124" viewBox="0 0 229 124" fill="none" xmlns="http://www.w3.org/2000/svg">
<path fill-rule="evenodd" clip-rule="evenodd" d="M4.31223 62.1111C28.0816 26.6015 68.5605 3.22217 114.5 3.22217C160.439 3.22217 200.918 26.6015 224.688 62.1111C200.918 97.6207 160.439 121 114.5 121C68.5605 121 28.0816 97.6207 4.31223 62.1111Z" fill="#E4E6DA"/>
<path d="M4.31223 62.1111L1.8192 60.4423L0.70216 62.1111L1.8192 63.7799L4.31223 62.1111ZM224.688 62.1111L227.181 63.7799L228.298 62.1111L227.181 60.4423L224.688 62.1111ZM6.80526 63.7799C30.0415 29.0667 69.6035 6.22217 114.5 6.22217V0.222168C67.5175 0.222168 26.1217 24.1363 1.8192 60.4423L6.80526 63.7799ZM114.5 6.22217C159.396 6.22217 198.959 29.0667 222.195 63.7799L227.181 60.4423C202.878 24.1363 161.482 0.222168 114.5 0.222168V6.22217ZM222.195 60.4423C198.959 95.1555 159.396 118 114.5 118V124C161.482 124 202.878 100.086 227.181 63.7799L222.195 60.4423ZM114.5 118C69.6035 118 30.0415 95.1555 6.80526 60.4423L1.8192 63.7799C26.1217 100.086 67.5175 124 114.5 124V118Z" fill="#A6A89C"/>
<circle cx="115" cy="64" r="39" fill="#E85746"/>
<circle cx="114.5" cy="64.5" r="25.5" fill="black"/>
</svg>
