<svg width="780" height="520" viewBox="0 0 780 520" fill="none" xmlns="http://www.w3.org/2000/svg">
<rect width="130" height="130" fill="#E9D6B6"/>
<rect x="130" width="130" height="130" fill="#141821"/>
<rect x="260" width="130" height="130" fill="#E9D6B6"/>
<rect x="390" width="130" height="130" fill="#006BB3"/>
<rect x="520" width="130" height="130" fill="#E9D6B6"/>
<rect x="650" width="130" height="130" fill="#E9D6B6"/>
<rect y="130" width="130" height="130" fill="#68886F"/>
<rect x="130" y="130" width="130" height="130" fill="#68886F"/>
<rect x="260" y="130" width="130" height="130" fill="#006BB3"/>
<rect x="390" y="130" width="130" height="130" fill="#68886F"/>
<rect x="520" y="130" width="130" height="130" fill="#E9D6B6"/>
<rect x="650" y="130" width="130" height="130" fill="#141821"/>
<rect y="260" width="130" height="130" fill="#006BB3"/>
<rect x="130" y="260" width="130" height="130" fill="#E9D6B6"/>
<rect x="260" y="260" width="130" height="130" fill="#006BB3"/>
<rect x="390" y="260" width="130" height="130" fill="#E9D6B6"/>
<rect x="520" y="260" width="130" height="130" fill="#68886F"/>
<rect x="650" y="260" width="130" height="130" fill="#E9D6B6"/>
<rect y="390" width="130" height="130" fill="#FCCE0C"/>
<rect x="130" y="390" width="130" height="130" fill="#141821"/>
<rect x="260" y="390" width="130" height="130" fill="#E9D6B6"/>
<rect x="390" y="390" width="130" height="130" fill="#31443F"/>
<rect x="520" y="390" width="130" height="130" fill="#E9D6B6"/>
<rect x="650" y="390" width="130" height="130" fill="#141821"/>
<path fill-rule="evenodd" clip-rule="evenodd" d="M0.495743 130C72.0187 130 130 72.0192 130 0.496185C130 0.330718 129.999 0.165322 129.999 0H0V129.999C0.165175 130 0.330423 130 0.495743 130Z" fill="#E14B19"/>
<path fill-rule="evenodd" clip-rule="evenodd" d="M130 0.495859C130 72.0188 187.981 130 259.504 130C259.669 130 259.835 129.999 260 129.999L260 0.00012207L130.001 0.000116388C130 0.165291 130 0.330539 130 0.495859Z" fill="#E14B19"/>
<path fill-rule="evenodd" clip-rule="evenodd" d="M260.496 130C332.019 130 390 72.0192 390 0.496185C390 0.330718 389.999 0.165322 389.999 0H260V129.999C260.165 130 260.33 130 260.496 130Z" fill="#006BB3"/>
<path fill-rule="evenodd" clip-rule="evenodd" d="M520.504 1.52154e-05C448.981 8.96271e-06 391 57.9808 391 129.504C391 129.669 391.001 129.835 391.001 130L521 130L521 0.000946045C520.835 0.00032042 520.67 1.52299e-05 520.504 1.52154e-05Z" fill="#E14B19"/>
<path fill-rule="evenodd" clip-rule="evenodd" d="M650 129.504C650 57.9812 592.019 0.000336552 520.496 0.000335699C520.331 0.000335697 520.165 0.000640871 520 0.00126648L520 130L649.999 130C650 129.835 650 129.669 650 129.504Z" fill="#E14B19"/>
<path fill-rule="evenodd" clip-rule="evenodd" d="M779.504 1.52154e-05C707.981 8.96269e-06 650 57.9808 650 129.504C650 129.669 650 129.835 650.001 130L780 130L780 0.000946045C779.835 0.00032042 779.669 1.52299e-05 779.504 1.52154e-05Z" fill="#FCCE0C"/>
<path fill-rule="evenodd" clip-rule="evenodd" d="M650 130.496C650 202.019 707.981 260 779.504 260C779.669 260 779.835 260 780 259.999L780 130L650.001 130C650 130.165 650 130.331 650 130.496Z" fill="#E14B19"/>
<path fill-rule="evenodd" clip-rule="evenodd" d="M780 389.504C780 317.981 722.019 260 650.496 260C650.331 260 650.165 260 650 260.001L650 390L779.999 390C780 389.835 780 389.669 780 389.504Z" fill="#E14B19"/>
<path fill-rule="evenodd" clip-rule="evenodd" d="M650.496 520C722.019 520 780 462.019 780 390.496C780 390.331 780 390.165 779.999 390H650V519.999C650.165 520 650.331 520 650.496 520Z" fill="#E14B19"/>
<path fill-rule="evenodd" clip-rule="evenodd" d="M650.504 260C578.981 260 521 317.981 521 389.504C521 389.669 521.001 389.835 521.001 390L651 390L651 260.001C650.835 260 650.67 260 650.504 260Z" fill="#E14B19"/>
<path fill-rule="evenodd" clip-rule="evenodd" d="M520 390.496C520 462.019 577.981 520 649.504 520C649.669 520 649.835 519.999 650 519.999L650 390L520.001 390C520 390.165 520 390.331 520 390.496Z" fill="#141821"/>
<path fill-rule="evenodd" clip-rule="evenodd" d="M390.496 390C462.019 390 520 332.019 520 260.496C520 260.331 519.999 260.165 519.999 260H390V389.999C390.165 390 390.33 390 390.496 390Z" fill="#141821"/>
<path fill-rule="evenodd" clip-rule="evenodd" d="M521 519.504C521 447.981 463.019 390 391.496 390C391.331 390 391.165 390.001 391 390.001L391 520L520.999 520C521 519.835 521 519.669 521 519.504Z" fill="#141821"/>
<path fill-rule="evenodd" clip-rule="evenodd" d="M262 260.496C262 332.019 319.981 390 391.504 390C391.669 390 391.835 389.999 392 389.999L392 260L262.001 260C262 260.165 262 260.331 262 260.496Z" fill="#E14B19"/>
<path fill-rule="evenodd" clip-rule="evenodd" d="M389.504 390C317.981 390 260 447.981 260 519.504C260 519.669 260 519.835 260.001 520L390 520L390 390.001C389.834 390 389.669 390 389.504 390Z" fill="#E14B19"/>
<path fill-rule="evenodd" clip-rule="evenodd" d="M130.496 390C202.019 390 260 332.019 260 260.496C260 260.331 259.999 260.165 259.999 260H130V389.999C130.165 390 130.33 390 130.496 390Z" fill="#FCCE0C"/>
<path fill-rule="evenodd" clip-rule="evenodd" d="M132 390.496C132 462.019 189.981 520 261.504 520C261.669 520 261.835 519.999 262 519.999L262 390L132.001 390C132 390.165 132 390.331 132 390.496Z" fill="#E14B19"/>
<path fill-rule="evenodd" clip-rule="evenodd" d="M-2.16705e-08 260.496C-3.14804e-06 332.019 57.9808 390 129.504 390C129.669 390 129.835 389.999 130 389.999L130 260L0.000930786 260C0.000305169 260.165 -1.44441e-08 260.331 -2.16705e-08 260.496Z" fill="#FCCE0C"/>
<path fill-rule="evenodd" clip-rule="evenodd" d="M130 519.504C130 447.981 72.0192 390 0.496187 390C0.330719 390 0.165324 390.001 1.55022e-06 390.001L0 520L129.999 520C130 519.835 130 519.669 130 519.504Z" fill="#68886F"/>
<path fill-rule="evenodd" clip-rule="evenodd" d="M520.496 260C592.019 260 650 202.019 650 130.496C650 130.331 649.999 130.165 649.999 130L520 130V259.999C520.165 260 520.33 260 520.496 260Z" fill="#006BB3"/>
<path fill-rule="evenodd" clip-rule="evenodd" d="M390 130.496C390 202.019 447.981 260 519.504 260C519.669 260 519.835 259.999 520 259.999L520 130L390.001 130C390 130.165 390 130.331 390 130.496Z" fill="#E14B19"/>
<path fill-rule="evenodd" clip-rule="evenodd" d="M390.504 130C318.981 130 261 187.981 261 259.504C261 259.669 261 259.835 261.001 260L391 260L391 130.001C390.834 130 390.669 130 390.504 130Z" fill="#E14B19"/>
<path fill-rule="evenodd" clip-rule="evenodd" d="M260 259.504C260 187.981 202.019 130 130.496 130C130.331 130 130.165 130.001 130 130.001L130 260L259.999 260C260 259.835 260 259.669 260 259.504Z" fill="#E14B19"/>
<path fill-rule="evenodd" clip-rule="evenodd" d="M129.504 130C57.9808 130 -3.94803e-05 187.981 -4.5733e-05 259.504C-4.57475e-05 259.669 0.000259414 259.835 0.00088501 260L130 260L130 130.001C129.834 130 129.669 130 129.504 130Z" fill="#E14B19"/>
<path fill-rule="evenodd" clip-rule="evenodd" d="M390 325C425.899 325 455 296.339 455 260.985C455 260.656 454.997 260.328 454.992 260L390 260V325Z" fill="#006BB3"/>
<path fill-rule="evenodd" clip-rule="evenodd" d="M0 65C35.8985 65 65 36.3394 65 0.984829C65 0.655968 64.9975 0.327685 64.9925 0L0 0V65Z" fill="#006BB3"/>
<path fill-rule="evenodd" clip-rule="evenodd" d="M260 65C295.899 65 325 36.3394 325 0.984829C325 0.655968 324.997 0.327685 324.992 0L260 0V65Z" fill="#E9D6B6"/>
<path fill-rule="evenodd" clip-rule="evenodd" d="M520 195C555.899 195 585 166.339 585 130.985C585 130.656 584.997 130.328 584.992 130L520 130V195Z" fill="#FCCE0C"/>
<path fill-rule="evenodd" clip-rule="evenodd" d="M130 325C165.899 325 195 296.339 195 260.985C195 260.656 194.997 260.328 194.992 260L130 260V325Z" fill="#E9D6B6"/>
<path fill-rule="evenodd" clip-rule="evenodd" d="M650 455C685.899 455 715 426.339 715 390.985C715 390.656 714.997 390.328 714.992 390L650 390V455Z" fill="#FCCE0C"/>
<path fill-rule="evenodd" clip-rule="evenodd" d="M325 260C325 295.899 353.661 325 389.015 325C389.344 325 389.672 324.997 390 324.992L390 260L325 260Z" fill="#006BB3"/>
<path fill-rule="evenodd" clip-rule="evenodd" d="M197 390C197 425.899 225.661 455 261.015 455C261.344 455 261.672 454.997 262 454.992L262 390L197 390Z" fill="#68886F"/>
<path fill-rule="evenodd" clip-rule="evenodd" d="M715 130C715 165.899 743.661 195 779.015 195C779.344 195 779.672 194.997 780 194.992L780 130L715 130Z" fill="#68886F"/>
<path fill-rule="evenodd" clip-rule="evenodd" d="M195 -2.84124e-06C195 35.8985 223.661 65 259.015 65C259.344 65 259.672 64.9975 260 64.9925L260 0L195 -2.84124e-06Z" fill="#006BB3"/>
<path fill-rule="evenodd" clip-rule="evenodd" d="M455 130C455 165.899 483.661 195 519.015 195C519.344 195 519.672 194.997 520 194.992L520 130L455 130Z" fill="#006BB3"/>
<path fill-rule="evenodd" clip-rule="evenodd" d="M65 260C65 295.899 93.6606 325 129.015 325C129.344 325 129.672 324.997 130 324.992L130 260L65 260Z" fill="#68886F"/>
<path fill-rule="evenodd" clip-rule="evenodd" d="M585 390C585 425.899 613.661 455 649.015 455C649.344 455 649.672 454.997 650 454.992L650 390L585 390Z" fill="#FCCE0C"/>
<path fill-rule="evenodd" clip-rule="evenodd" d="M390 195C354.101 195 325 223.661 325 259.015C325 259.344 325.003 259.672 325.008 260L390 260L390 195Z" fill="#E9D6B6"/>
<path fill-rule="evenodd" clip-rule="evenodd" d="M391 455C355.101 455 326 483.661 326 519.015C326 519.344 326.003 519.672 326.008 520L391 520L391 455Z" fill="#68886F"/>
<path fill-rule="evenodd" clip-rule="evenodd" d="M780 65C744.101 65 715 93.6606 715 129.015C715 129.344 715.003 129.672 715.008 130L780 130L780 65Z" fill="#68886F"/>
<path fill-rule="evenodd" clip-rule="evenodd" d="M520 65C484.101 65 455 93.6606 455 129.015C455 129.344 455.003 129.672 455.008 130L520 130L520 65Z" fill="#E9D6B6"/>
<path fill-rule="evenodd" clip-rule="evenodd" d="M130 195C94.1015 195 65 223.661 65 259.015C65 259.344 65.0025 259.672 65.0075 260L130 260L130 195Z" fill="#E9D6B6"/>
<path fill-rule="evenodd" clip-rule="evenodd" d="M650 325C614.101 325 585 353.661 585 389.015C585 389.344 585.003 389.672 585.008 390L650 390L650 325Z" fill="#FCCE0C"/>
<path fill-rule="evenodd" clip-rule="evenodd" d="M65 520C65 484.101 36.3394 455 0.98483 455C0.655968 455 0.327686 455.003 7.75028e-07 455.008L0 520L65 520Z" fill="#E14B19"/>
<path fill-rule="evenodd" clip-rule="evenodd" d="M456 520C456 484.101 427.339 455 391.985 455C391.656 455 391.328 455.003 391 455.008L391 520L456 520Z" fill="#E9D6B6"/>
<path fill-rule="evenodd" clip-rule="evenodd" d="M585 130C585 94.1015 556.339 65 520.985 65C520.656 65 520.328 65.0025 520 65.0076L520 130L585 130Z" fill="#006BB3"/>
<path fill-rule="evenodd" clip-rule="evenodd" d="M195 260C195 224.101 166.339 195 130.985 195C130.656 195 130.328 195.003 130 195.008L130 260L195 260Z" fill="#006BB3"/>
<path fill-rule="evenodd" clip-rule="evenodd" d="M715 390C715 354.101 686.339 325 650.985 325C650.656 325 650.328 325.003 650 325.008L650 390L715 390Z" fill="#006BB3"/>
</svg>
